<svg xmlns="http://www.w3.org/2000/svg" viewBox="0 0 126.34 87.64"><defs><style>.cls-1{fill:#93ccd3;}.cls-2{fill:#d2d2d2;}</style></defs><title>bubbles-bottom</title><g id="Ebene_2" data-name="Ebene 2"><g id="Layer_1" data-name="Layer 1"><path class="cls-1" d="M108.47,86.37a25.85,25.85,0,1,1,16.6-32.7A25.86,25.86,0,0,1,108.47,86.37Zm-.5-1.8a24,24,0,1,0-30.3-15.4v.1A24.13,24.13,0,0,0,108,84.57Z"/><path class="cls-2" d="M90.27,46.77h0a33.16,33.16,0,1,1-1.6-9.1A35.49,35.49,0,0,1,90.27,46.77Zm-54.4,24.1a31.17,31.17,0,0,0,52.4-24h0a31.22,31.22,0,0,0-62.4,2.2A31.78,31.78,0,0,0,35.87,70.87Z"/><path class="cls-1" d="M33.87,50.47a25.87,25.87,0,1,1,16.5-32.7A25.86,25.86,0,0,1,33.87,50.47Zm-.6-1.7a24,24,0,1,0-30.2-15.4v.1A24.06,24.06,0,0,0,33.27,48.77Z"/></g></g></svg>