<?xml version="1.0" encoding="utf-8"?>
<!-- Generator: Adobe Illustrator 23.0.3, SVG Export Plug-In . SVG Version: 6.00 Build 0)  -->
<svg version="1.1" id="Layer_1" xmlns="http://www.w3.org/2000/svg" xmlns:xlink="http://www.w3.org/1999/xlink" x="0px" y="0px"
	 viewBox="0 0 200 125.1" style="enable-background:new 0 0 200 125.1;" xml:space="preserve">
<style type="text/css">
	.st0{fill:#93CCD3;}
	.st1{fill:#D2D2D2;}
</style>
<title>bubbles-top</title>
<g>
	<path class="st0" d="M25.8,76.1C11.6,76.1,0,64.6,0,50.3s11.6-25.8,25.8-25.8S51.7,36,51.7,50.3v0C51.7,64.6,40.1,76.1,25.8,76.1z
		 M25.8,26.3c-13.3,0-24,10.7-24,24s10.7,24,24,24s24-10.7,24-24C49.8,37.1,39.1,26.3,25.8,26.3C25.8,26.3,25.8,26.3,25.8,26.3
		L25.8,26.3z"/>
	<path class="st1" d="M64.9,66.2c-18.3,0-33.1-14.8-33.1-33.1S46.6,0,64.9,0C83.2,0,98,14.8,98,33.1C98,51.4,83.2,66.2,64.9,66.2z
		 M64.9,1.9c-17.2,0-31.2,14-31.2,31.2c0,17.2,14,31.2,31.2,31.2c17.2,0,31.2-14,31.2-31.2C96.1,15.9,82.1,1.9,64.9,1.9z"/>
	<path class="st0" d="M134.7,93.5c-14.3,0-25.9-11.6-25.9-25.9s11.6-25.9,25.9-25.9c14.3,0,25.9,11.6,25.9,25.9
		c0,11.5-7.7,21.7-18.8,24.9l0,0C139.5,93.2,137.1,93.5,134.7,93.5z M134.7,43.7c-2.2,0-4.5,0.3-6.6,0.9
		c-12.5,4.4-19,18.2-14.6,30.6c4,11.4,15.9,18,27.8,15.4l0.3,0.9l-0.3-0.9c12.7-3.8,19.9-17.1,16.2-29.9
		C154.4,50.8,145.2,43.8,134.7,43.7L134.7,43.7z"/>
	<path class="st1" d="M166.9,125.1c-18.3,0-33.1-14.8-33.2-33.1s14.8-33.1,33.1-33.2S200,73.6,200,91.9c0,14.8-9.8,27.8-24,31.9l0,0
		C173,124.7,170,125.1,166.9,125.1z M166.9,60.7c-17.3,0-31.3,14-31.3,31.2c0,17.3,14,31.3,31.2,31.3c2.9,0,5.8-0.4,8.6-1.2l0,0
		c16.6-4.8,26.2-22.1,21.4-38.6C193.1,70,180.8,60.8,166.9,60.7L166.9,60.7z"/>
</g>
</svg>
