<svg id="Layer_1" data-name="Layer 1" xmlns="http://www.w3.org/2000/svg" viewBox="0 0 200 125.09"><defs><style>.cls-1{fill:#dd1681;}.cls-2{fill:#8bbf3d;}</style></defs><title>bubbles-top</title><path class="cls-1" d="M25.84,76.13A25.84,25.84,0,1,1,51.68,50.29,25.87,25.87,0,0,1,25.84,76.13Zm0-49.79a24,24,0,1,0,24,24A24,24,0,0,0,25.84,26.33Z"/><path class="cls-2" d="M64.88,66.23A33.11,33.11,0,1,1,98,33.11,33.15,33.15,0,0,1,64.88,66.23Zm0-64.35A31.23,31.23,0,1,0,96.12,33.11,31.27,31.27,0,0,0,64.88,1.88Z"/><path class="cls-1" d="M134.66,93.54a25.88,25.88,0,1,1,7.14-1h0A26,26,0,0,1,134.66,93.54Zm.07-49.82a24.07,24.07,0,0,0-6.62.93,24,24,0,0,0,13.17,46.06l.26.91-.26-.91a24,24,0,0,0-6.55-47Z"/><path class="cls-2" d="M166.89,125.09a33.13,33.13,0,1,1,9.09-1.28h0A33.05,33.05,0,0,1,166.89,125.09Zm0-64.36A31.24,31.24,0,1,0,175.47,122h0a31.24,31.24,0,0,0-8.54-61.27Z"/></svg>