<?xml version="1.0" encoding="utf-8"?>
<!-- Generator: Adobe Illustrator 20.1.0, SVG Export Plug-In . SVG Version: 6.00 Build 0)  -->
<svg version="1.1" id="Layer_1" xmlns="http://www.w3.org/2000/svg" xmlns:xlink="http://www.w3.org/1999/xlink" x="0px" y="0px"
	 viewBox="0 0 127.8 88.4" style="enable-background:new 0 0 127.8 88.4;" xml:space="preserve">
<style type="text/css">
	.st0{fill:#DD1681;}
	.st1{fill:#8BBF3D;}
</style>
<title>bubbles-bottom</title>
<path class="st0" d="M109.9,87.2c-13.6,4.4-28.2-3-32.6-16.6S80.4,42.4,94,38c13.6-4.4,28.1,3,32.5,16.5
	C130.9,68.1,123.5,82.7,109.9,87.2z M109.4,85.4c12.6-4.1,19.5-17.7,15.4-30.3s-17.7-19.5-30.3-15.4S75,57.4,79.1,70
	c0,0,0,0.1,0,0.1C83.3,82.6,96.8,89.5,109.4,85.4z"/>
<path class="st1" d="M91.7,47.6L91.7,47.6C92.3,65.8,78,81.2,59.8,81.8S26.2,68.2,25.5,49.9c-0.6-18.3,13.6-33.6,31.9-34.3
	c14.8-0.5,28.1,8.8,32.7,22.9C91,41.5,91.6,44.5,91.7,47.6z M37.3,71.7c12.6,11.7,32.4,11,44.1-1.6c5.6-6.1,8.6-14.1,8.3-22.4l0,0
	c-0.6-17.2-15.1-30.7-32.3-30.1c-17.2,0.6-30.7,15.1-30.1,32.3C27.7,58.2,31.2,66,37.3,71.7z"/>
<path class="st0" d="M35.3,51.3c-13.6,4.4-28.2-3-32.6-16.6s3-28.2,16.6-32.6c13.6-4.4,28.1,3,32.5,16.5
	C56.3,32.3,48.9,46.9,35.3,51.3z M34.7,49.6c12.6-4.1,19.5-17.7,15.4-30.3S32.5-0.2,19.9,3.9S0.4,21.6,4.5,34.2c0,0,0,0.1,0,0.1
	C8.7,46.8,22.2,53.7,34.7,49.6z"/>
</svg>
